<svg xmlns="http://www.w3.org/2000/svg" viewBox="0 0 1200 630" fill="none">
  <rect width="1200" height="630" fill="#f5f0eb"/>
  <!-- Architectural grid -->
  <line x1="96" y1="0" x2="96" y2="630" stroke="#1a1a1a" stroke-opacity="0.06" stroke-width="1"/>
  <line x1="300" y1="0" x2="300" y2="630" stroke="#1a1a1a" stroke-opacity="0.06" stroke-width="1"/>
  <line x1="600" y1="0" x2="600" y2="630" stroke="#1a1a1a" stroke-opacity="0.06" stroke-width="1"/>
  <line x1="900" y1="0" x2="900" y2="630" stroke="#1a1a1a" stroke-opacity="0.06" stroke-width="1"/>
  <line x1="1104" y1="0" x2="1104" y2="630" stroke="#1a1a1a" stroke-opacity="0.06" stroke-width="1"/>
  <line x1="0" y1="76" x2="1200" y2="76" stroke="#1a1a1a" stroke-opacity="0.06" stroke-width="1"/>
  <line x1="0" y1="239" x2="1200" y2="239" stroke="#1a1a1a" stroke-opacity="0.06" stroke-width="1"/>
  <line x1="0" y1="454" x2="1200" y2="454" stroke="#1a1a1a" stroke-opacity="0.06" stroke-width="1"/>
  <line x1="0" y1="554" x2="1200" y2="554" stroke="#1a1a1a" stroke-opacity="0.06" stroke-width="1"/>
  <!-- QR code abstraction (left quadrant) -->
  <rect x="170" y="155" width="260" height="260" stroke="#1a1a1a" stroke-opacity="0.12" stroke-width="1.5" fill="none"/>
  <!-- Top-left finder square -->
  <rect x="188" y="173" width="66" height="66" stroke="#1a1a1a" stroke-opacity="0.18" stroke-width="1.5" fill="none"/>
  <rect x="200" y="185" width="42" height="42" fill="#1a1a1a" fill-opacity="0.1"/>
  <rect x="212" y="197" width="18" height="18" fill="#1a1a1a" fill-opacity="0.28"/>
  <!-- Top-right finder square -->
  <rect x="346" y="173" width="66" height="66" stroke="#1a1a1a" stroke-opacity="0.18" stroke-width="1.5" fill="none"/>
  <rect x="358" y="185" width="42" height="42" fill="#1a1a1a" fill-opacity="0.1"/>
  <rect x="370" y="197" width="18" height="18" fill="#1a1a1a" fill-opacity="0.28"/>
  <!-- Bottom-left finder square -->
  <rect x="188" y="331" width="66" height="66" stroke="#1a1a1a" stroke-opacity="0.18" stroke-width="1.5" fill="none"/>
  <rect x="200" y="343" width="42" height="42" fill="#1a1a1a" fill-opacity="0.1"/>
  <rect x="212" y="355" width="18" height="18" fill="#1a1a1a" fill-opacity="0.28"/>
  <!-- Data modules (center + right zones of QR) -->
  <rect x="278" y="173" width="10" height="10" fill="#1a1a1a" fill-opacity="0.14"/>
  <rect x="292" y="173" width="10" height="10" fill="#1a1a1a" fill-opacity="0.08"/>
  <rect x="306" y="173" width="10" height="10" fill="#1a1a1a" fill-opacity="0.14"/>
  <rect x="320" y="173" width="10" height="10" fill="#1a1a1a" fill-opacity="0.08"/>
  <rect x="278" y="187" width="10" height="10" fill="#1a1a1a" fill-opacity="0.08"/>
  <rect x="306" y="187" width="10" height="10" fill="#1a1a1a" fill-opacity="0.14"/>
  <rect x="278" y="201" width="10" height="10" fill="#1a1a1a" fill-opacity="0.14"/>
  <rect x="292" y="201" width="10" height="10" fill="#1a1a1a" fill-opacity="0.08"/>
  <rect x="320" y="201" width="10" height="10" fill="#1a1a1a" fill-opacity="0.14"/>
  <rect x="278" y="257" width="10" height="10" fill="#1a1a1a" fill-opacity="0.08"/>
  <rect x="292" y="257" width="10" height="10" fill="#1a1a1a" fill-opacity="0.14"/>
  <rect x="306" y="257" width="10" height="10" fill="#1a1a1a" fill-opacity="0.08"/>
  <rect x="278" y="271" width="10" height="10" fill="#1a1a1a" fill-opacity="0.14"/>
  <rect x="320" y="271" width="10" height="10" fill="#1a1a1a" fill-opacity="0.14"/>
  <rect x="292" y="285" width="10" height="10" fill="#1a1a1a" fill-opacity="0.08"/>
  <rect x="306" y="285" width="10" height="10" fill="#1a1a1a" fill-opacity="0.14"/>
  <rect x="346" y="257" width="10" height="10" fill="#1a1a1a" fill-opacity="0.08"/>
  <rect x="360" y="257" width="10" height="10" fill="#1a1a1a" fill-opacity="0.14"/>
  <rect x="374" y="271" width="10" height="10" fill="#1a1a1a" fill-opacity="0.08"/>
  <rect x="388" y="257" width="10" height="10" fill="#1a1a1a" fill-opacity="0.14"/>
  <rect x="346" y="285" width="10" height="10" fill="#1a1a1a" fill-opacity="0.14"/>
  <rect x="388" y="285" width="10" height="10" fill="#1a1a1a" fill-opacity="0.08"/>
  <rect x="360" y="299" width="10" height="10" fill="#1a1a1a" fill-opacity="0.14"/>
  <rect x="374" y="313" width="10" height="10" fill="#1a1a1a" fill-opacity="0.08"/>
  <rect x="388" y="313" width="10" height="10" fill="#1a1a1a" fill-opacity="0.14"/>
  <!-- QRIS label -->
  <text x="300" y="448" font-family="monospace" font-size="10" fill="#1a1a1a" fill-opacity="0.3" text-anchor="middle" letter-spacing="5">METHOD 01 / QRIS</text>
  <!-- ETH diamond (right section, centered ~840) -->
  <polygon points="840,185 970,270 840,320 710,270" stroke="#a35b42" stroke-opacity="0.28" stroke-width="1.5" fill="none"/>
  <polygon points="840,320 970,270 840,450 710,270" stroke="#a35b42" stroke-opacity="0.22" stroke-width="1.5" fill="none"/>
  <!-- ETH vertical spine -->
  <line x1="840" y1="185" x2="840" y2="450" stroke="#a35b42" stroke-opacity="0.12" stroke-width="1"/>
  <!-- ETH horizontal equator -->
  <line x1="710" y1="270" x2="970" y2="270" stroke="#a35b42" stroke-opacity="0.1" stroke-width="1"/>
  <!-- ETH label -->
  <text x="840" y="490" font-family="monospace" font-size="10" fill="#a35b42" fill-opacity="0.45" text-anchor="middle" letter-spacing="5">METHOD 02 / ETHEREUM</text>
  <!-- Center divider -->
  <line x1="600" y1="155" x2="600" y2="510" stroke="#1a1a1a" stroke-opacity="0.08" stroke-width="1" stroke-dasharray="4 6"/>
  <!-- Kanji watermark -->
  <text x="600" y="580" font-family="sans-serif" font-weight="900" font-size="160" fill="#1a1a1a" fill-opacity="0.04" text-anchor="middle">支払</text>
  <!-- Top-right annotation -->
  <text x="1150" y="58" font-family="monospace" font-size="10" fill="#1a1a1a" fill-opacity="0.22" text-anchor="end" letter-spacing="3">支払い / PAYMENT</text>
</svg>
